<svg width="31" height="35" viewBox="0 0 31 35" fill="none" xmlns="http://www.w3.org/2000/svg">
<rect y="9" width="3" height="17" rx="1.5" fill="url(#paint0_linear_1_45)"/>
<rect x="4" y="6" width="3" height="23" rx="1.5" fill="url(#paint1_linear_1_45)"/>
<rect x="8" y="4" width="3" height="27" rx="1.5" fill="url(#paint2_linear_1_45)"/>
<rect x="12" width="3" height="35" rx="1.5" fill="url(#paint3_linear_1_45)"/>
<rect x="16" width="3" height="35" rx="1.5" fill="url(#paint4_linear_1_45)"/>
<rect x="20" y="4" width="3" height="27" rx="1.5" fill="url(#paint5_linear_1_45)"/>
<rect x="24" y="6" width="3" height="23" rx="1.5" fill="url(#paint6_linear_1_45)"/>
<rect x="28" y="9" width="3" height="17" rx="1.5" fill="url(#paint7_linear_1_45)"/>
<defs>
<linearGradient id="paint0_linear_1_45" x1="1.5" y1="9" x2="1.5" y2="26" gradientUnits="userSpaceOnUse">
<stop stop-color="#0C3A88"/>
<stop offset="1" stop-color="#019AA4"/>
</linearGradient>
<linearGradient id="paint1_linear_1_45" x1="5.5" y1="6" x2="5.5" y2="29" gradientUnits="userSpaceOnUse">
<stop stop-color="#0C3A88"/>
<stop offset="1" stop-color="#019AA4"/>
</linearGradient>
<linearGradient id="paint2_linear_1_45" x1="9.5" y1="4" x2="9.5" y2="31" gradientUnits="userSpaceOnUse">
<stop stop-color="#0C3A88"/>
<stop offset="1" stop-color="#019AA4"/>
</linearGradient>
<linearGradient id="paint3_linear_1_45" x1="13.5" y1="0" x2="13.5" y2="35" gradientUnits="userSpaceOnUse">
<stop stop-color="#0C3A88"/>
<stop offset="1" stop-color="#019AA4"/>
</linearGradient>
<linearGradient id="paint4_linear_1_45" x1="17.5" y1="0" x2="17.5" y2="35" gradientUnits="userSpaceOnUse">
<stop stop-color="#0C3A88"/>
<stop offset="1" stop-color="#019AA4"/>
</linearGradient>
<linearGradient id="paint5_linear_1_45" x1="21.5" y1="4" x2="21.5" y2="31" gradientUnits="userSpaceOnUse">
<stop stop-color="#0C3A88"/>
<stop offset="1" stop-color="#019AA4"/>
</linearGradient>
<linearGradient id="paint6_linear_1_45" x1="25.5" y1="6" x2="25.5" y2="29" gradientUnits="userSpaceOnUse">
<stop stop-color="#0C3A88"/>
<stop offset="1" stop-color="#019AA4"/>
</linearGradient>
<linearGradient id="paint7_linear_1_45" x1="29.5" y1="9" x2="29.5" y2="26" gradientUnits="userSpaceOnUse">
<stop stop-color="#0C3A88"/>
<stop offset="1" stop-color="#019AA4"/>
</linearGradient>
</defs>
</svg>
